<svg xmlns="http://www.w3.org/2000/svg" xmlns:xlink="http://www.w3.org/1999/xlink" xmlns:lucid="lucid" width="945.03" height="800.82"><g transform="translate(-32.52143043616945 -150.05494533409063)" lucid:page-tab-id="0_0"><path d="M0 0h1000v1000H0z" fill="#fff"/><path d="M53.52 276.8a6 6 0 0 1 6-6H250.1a6 6 0 0 1 6 6v146.75c-33.83-25.5-54.9-25.5-67.66-25.5-20.26 0-47.2 25.5-67.46 25.5-12.56 0-33.83 0-67.46-25.5z" stroke="#000" stroke-width="2" fill="#fff7a1"/><use xlink:href="#a" transform="matrix(1,0,0,1,58.52143043616945,275.8027483672372) translate(43.5679012345679 50.96527777777778)"/><use xlink:href="#b" transform="matrix(1,0,0,1,58.52143043616945,275.8027483672372) translate(85.35802469135803 50.96527777777778)"/><use xlink:href="#c" transform="matrix(1,0,0,1,58.52143043616945,275.8027483672372) translate(42.98148148148148 77.63194444444446)"/><use xlink:href="#d" transform="matrix(1,0,0,1,58.52143043616945,275.8027483672372) translate(105.69753086419753 77.63194444444446)"/><path d="M53.52 731.84a6 6 0 0 1 6-6H250.1a6 6 0 0 1 6 6V878.6c-33.83-25.52-54.9-25.52-67.66-25.52-20.26 0-47.2 25.5-67.46 25.5-12.56 0-33.83 0-67.46-25.5z" stroke="#000" stroke-width="2" fill="#fff7a1"/><use xlink:href="#a" transform="matrix(1,0,0,1,58.52143043616945,730.8374342640501) translate(43.5679012345679 50.96527777777778)"/><use xlink:href="#b" transform="matrix(1,0,0,1,58.52143043616945,730.8374342640501) translate(85.35802469135803 50.96527777777778)"/><use xlink:href="#c" transform="matrix(1,0,0,1,58.52143043616945,730.8374342640501) translate(36.839506172839506 77.63194444444446)"/><use xlink:href="#e" transform="matrix(1,0,0,1,58.52143043616945,730.8374342640501) translate(99.55555555555556 77.63194444444446)"/><path d="M227.4 626.42c0 6.33-32.5 11.46-72.6 11.46-40.08 0-72.58-5.13-72.58-11.46v-91.68c0-6.33 32.5-11.47 72.6-11.47 40.08 0 72.58 5.14 72.58 11.47z" stroke="#000" stroke-width="2" fill="#dfe3e8"/><path d="M227.4 534.74c0 6.32-32.5 11.46-72.6 11.46-40.08 0-72.58-5.14-72.58-11.47" stroke="#000" stroke-width="2" fill="none"/><use xlink:href="#f" transform="matrix(1,0,0,1,87.21740964388994,551.1951434808846) translate(44.574074074074076 33.15277777777778)"/><use xlink:href="#g" transform="matrix(1,0,0,1,87.21740964388994,551.1951434808846) translate(11.672839506172835 59.81944444444445)"/><path d="M377.1 177.06a6 6 0 0 1 6-6H729a6 6 0 0 1 6 6v746.8a6 6 0 0 1-6 6H383.1a6 6 0 0 1-6-6z" fill="#b8f5ed"/><path d="M402.3 171.06h19.22m9.6 0h19.23m9.6 0h19.22m9.6 0H508m9.6 0h19.22m9.6 0h19.23m9.6 0h19.22m9.6 0h19.23m9.6 0h19.22m9.6 0h19.23m9.6 0h19.22m9.6 0H729l.92.07.92.22.87.36.8.5.73.6.6.73.5.8.36.87.2.92.1.94V187m0 9.97v19.9m0 9.97v19.92m0 9.95v19.93m0 9.96v19.9m0 9.96v19.92m0 9.95v19.92m0 9.96v19.92m0 9.96v19.9m0 9.97v19.92m0 9.95v19.92m0 9.96v19.9m0 9.97v19.9m0 9.97v19.92m0 9.95v19.93m0 9.96v19.9m0 9.96v19.9m0 9.97v19.92m0 9.95v19.92m0 9.96v19.9m0 9.97v19.92m0 9.95v19.92m0 9.95v19.9m0 9.97v19.9m0 9.97v19.92m0 9.95v9.97l-.1.94-.2.92-.37.87-.5.8-.6.7-.72.62-.8.5-.86.36-.92.22-.93.07h-9.62m-9.6 0h-19.23m-9.6 0h-19.22m-9.6 0H632.9m-9.6 0h-19.22m-9.6 0h-19.23m-9.6 0h-19.22m-9.6 0H517.6m-9.6 0h-19.22m-9.6 0h-19.22m-9.6 0h-19.23m-9.6 0H402.3m-9.6 0h-9.6l-.95-.07-.9-.22-.88-.36-.8-.5-.72-.6-.6-.72-.5-.8-.37-.88-.2-.9-.1-.95v-9.96m0-9.94v-19.92m0-9.96v-19.9m0-9.97v-19.9m0-9.96v-19.92m0-9.95v-19.92m0-9.96v-19.92m0-9.96V704.8m0-9.95v-19.92m0-9.96v-19.9m0-9.97v-19.9m0-9.97V585.3m0-9.94v-19.92m0-9.96v-19.9m0-9.97v-19.9m0-9.96v-19.92m0-9.95v-19.92m0-9.96v-19.92m0-9.96v-19.9m0-9.97v-19.92m0-9.95v-19.92m0-9.96v-19.9m0-9.97V256.7m0-9.94v-19.92m0-9.96v-19.9m0-9.97v-9.94l.1-.94.2-.92.37-.87.5-.8.6-.72.7-.6.82-.5.87-.35.9-.22.95-.07h9.6" stroke="#000" stroke-width="2" fill="none"/><use xlink:href="#h" transform="matrix(1,0,0,1,389.0912999497408,183.05494533409063) translate(126.90740740740742 373.79340277777777)"/><path d="M476.04 293.18a6 6 0 0 1 6-6h148a6 6 0 0 1 6 6v108a6 6 0 0 1-6 6h-148a6 6 0 0 1-6-6z" stroke="#000" stroke-width="2" fill="#fff"/><use xlink:href="#i" transform="matrix(1,0,0,1,488.0387087791355,299.1791220487811) translate(14.481481481481481 53.77777777777778)"/><use xlink:href="#d" transform="matrix(1,0,0,1,488.0387087791355,299.1791220487811) translate(77.19753086419753 53.77777777777778)"/><path d="M956.56 395.18c0 6.63-26.87 12-60 12-33.14 0-60-5.37-60-12v-96c0-6.63 26.86-12 60-12 33.13 0 60 5.37 60 12z" stroke="#000" stroke-width="2" fill="#dfe3e8"/><path d="M956.56 299.18c0 6.63-26.87 12-60 12-33.14 0-60-5.37-60-12" stroke="#000" stroke-width="2" fill="none"/><use xlink:href="#j" transform="matrix(1,0,0,1,841.5561873540282,316.1791220487811) translate(7.5 47.34027777777778)"/><path d="M257.6 347.37h201.05" stroke="#000" fill="none"/><path d="M257.6 347.85h-.5v-.95h.5z" stroke="#000" stroke-width=".05"/><path d="M473.42 347.37L459.15 352v-9.26z" stroke="#000"/><path d="M637.54 347.18h181.63" stroke="#000" fill="none"/><path d="M637.55 347.65h-.5v-.95h.5z" stroke="#000" stroke-width=".05"/><path d="M833.94 347.18l-14.27 4.63v-9.26z" stroke="#000"/><path d="M476.04 523.88a6 6 0 0 1 6-6h148a6 6 0 0 1 6 6v108a6 6 0 0 1-6 6h-148a6 6 0 0 1-6-6z" stroke="#000" stroke-width="2" fill="#fff"/><use xlink:href="#k" transform="matrix(1,0,0,1,488.0387087791355,529.8774383683292) translate(17.907407407407412 53.77777777777778)"/><path d="M861.8 406.34v165.54a6 6 0 0 1-6 6H653.43" stroke="#000" fill="none"/><path d="M862.3 405.9v.46h-.96v-.57z" stroke="#000" stroke-width=".05"/><path d="M638.66 577.88l14.26-4.64v9.27z" stroke="#000"/><path d="M474.54 577.88H244.8" stroke="#000" fill="none"/><path d="M475.04 578.35h-.5v-.95h.5z" stroke="#000" stroke-width=".05"/><path d="M230.02 577.88l14.27-4.64v9.27z" stroke="#000"/><path d="M476.04 748.2a6 6 0 0 1 6-6h148a6 6 0 0 1 6 6v108a6 6 0 0 1-6 6h-148a6 6 0 0 1-6-6z" stroke="#000" stroke-width="2" fill="#fff"/><use xlink:href="#i" transform="matrix(1,0,0,1,488.0387087791355,754.2138079455941) translate(8.339506172839506 53.77777777777778)"/><use xlink:href="#e" transform="matrix(1,0,0,1,488.0387087791355,754.2138079455941) translate(71.05555555555556 53.77777777777778)"/><path d="M154.8 639.38v44.67a6 6 0 0 0 6 6h389.24a6 6 0 0 1 6 6v28.78" stroke="#000" fill="none"/><path d="M154.8 638.88h.5v.5h-.96v-.52z" stroke="#000" stroke-width=".05"/><path d="M556.04 739.6l-4.64-14.27h9.27z" stroke="#000"/><path d="M257.6 802.2h201.05" stroke="#000" fill="none"/><path d="M257.6 802.7h-.5v-.96h.5z" stroke="#000" stroke-width=".05"/><path d="M473.42 802.2l-14.27 4.65v-9.27z" stroke="#000"/><path d="M637.54 802.2H925.9a6 6 0 0 0 6-6v-374" stroke="#000" fill="none"/><path d="M637.55 802.7h-.5v-.96h.5z" stroke="#000" stroke-width=".05"/><path d="M931.9 407.44l4.62 14.27h-9.27z" stroke="#000"/><path d="M436.04 194.47a6 6 0 0 1 6-6h228a6 6 0 0 1 6 6v48a6 6 0 0 1-6 6h-228a6 6 0 0 1-6-6z" stroke="#000" stroke-width="2" fill="#fff" fill-opacity="0"/><g><use xlink:href="#l" transform="matrix(1,0,0,1,441.0387087791355,193.4677043630944) translate(81.79012345679013 30.27777777777778)"/></g><defs><path d="M63-220v92h138v28H63V0H30v-248h175v28H63" id="m"/><path d="M24-231v-30h32v30H24zM24 0v-190h32V0H24" id="n"/><path d="M24 0v-261h32V0H24" id="o"/><path d="M100-194c63 0 86 42 84 106H49c0 40 14 67 53 68 26 1 43-12 49-29l28 8c-11 28-37 45-77 45C44 4 14-33 15-96c1-61 26-98 85-98zm52 81c6-60-76-77-97-28-3 7-6 17-6 28h103" id="p"/><g id="a"><use transform="matrix(0.06172839506172839,0,0,0.06172839506172839,0,0)" xlink:href="#m"/><use transform="matrix(0.06172839506172839,0,0,0.06172839506172839,13.518518518518517,0)" xlink:href="#n"/><use transform="matrix(0.06172839506172839,0,0,0.06172839506172839,18.39506172839506,0)" xlink:href="#o"/><use transform="matrix(0.06172839506172839,0,0,0.06172839506172839,23.2716049382716,0)" xlink:href="#p"/></g><path d="M212-179c-10-28-35-45-73-45-59 0-87 40-87 99 0 60 29 101 89 101 43 0 62-24 78-52l27 14C228-24 195 4 139 4 59 4 22-46 18-125c-6-104 99-153 187-111 19 9 31 26 39 46" id="q"/><path d="M100-194c62-1 85 37 85 99 1 63-27 99-86 99S16-35 15-95c0-66 28-99 85-99zM99-20c44 1 53-31 53-75 0-43-8-75-51-75s-53 32-53 75 10 74 51 75" id="r"/><path d="M117-194c89-4 53 116 60 194h-32v-121c0-31-8-49-39-48C34-167 62-67 57 0H25l-1-190h30c1 10-1 24 2 32 11-22 29-35 61-36" id="s"/><path d="M101-234c-31-9-42 10-38 44h38v23H63V0H32v-167H5v-23h27c-7-52 17-82 69-68v24" id="t"/><path d="M177-190C167-65 218 103 67 71c-23-6-38-20-44-43l32-5c15 47 100 32 89-28v-30C133-14 115 1 83 1 29 1 15-40 15-95c0-56 16-97 71-98 29-1 48 16 59 35 1-10 0-23 2-32h30zM94-22c36 0 50-32 50-73 0-42-14-75-50-75-39 0-46 34-46 75s6 73 46 73" id="u"/><g id="b"><use transform="matrix(0.06172839506172839,0,0,0.06172839506172839,0,0)" xlink:href="#q"/><use transform="matrix(0.06172839506172839,0,0,0.06172839506172839,15.987654320987653,0)" xlink:href="#r"/><use transform="matrix(0.06172839506172839,0,0,0.06172839506172839,28.333333333333332,0)" xlink:href="#s"/><use transform="matrix(0.06172839506172839,0,0,0.06172839506172839,40.67901234567901,0)" xlink:href="#t"/><use transform="matrix(0.06172839506172839,0,0,0.06172839506172839,46.851851851851855,0)" xlink:href="#n"/><use transform="matrix(0.06172839506172839,0,0,0.06172839506172839,51.7283950617284,0)" xlink:href="#u"/></g><path d="M114-163C36-179 61-72 57 0H25l-1-190h30c1 12-1 29 2 39 6-27 23-49 58-41v29" id="v"/><path d="M141-36C126-15 110 5 73 4 37 3 15-17 15-53c-1-64 63-63 125-63 3-35-9-54-41-54-24 1-41 7-42 31l-33-3c5-37 33-52 76-52 45 0 72 20 72 64v82c-1 20 7 32 28 27v20c-31 9-61-2-59-35zM48-53c0 20 12 33 32 33 41-3 63-29 60-74-43 2-92-5-92 41" id="w"/><path d="M206 0h-36l-40-164L89 0H53L-1-190h32L70-26l43-164h34l41 164 42-164h31" id="x"/><g id="c"><use transform="matrix(0.06172839506172839,0,0,0.06172839506172839,0,0)" xlink:href="#q"/><use transform="matrix(0.06172839506172839,0,0,0.06172839506172839,15.987654320987653,0)" xlink:href="#v"/><use transform="matrix(0.06172839506172839,0,0,0.06172839506172839,23.333333333333332,0)" xlink:href="#w"/><use transform="matrix(0.06172839506172839,0,0,0.06172839506172839,35.67901234567901,0)" xlink:href="#x"/><use transform="matrix(0.06172839506172839,0,0,0.06172839506172839,51.666666666666664,0)" xlink:href="#o"/></g><path d="M232-93c-1 65-40 97-104 97C67 4 28-28 28-90v-158h33c8 89-33 224 67 224 102 0 64-133 71-224h33v155" id="y"/><path d="M233-177c-1 41-23 64-60 70L243 0h-38l-65-103H63V0H30v-248c88 3 205-21 203 71zM63-129c60-2 137 13 137-47 0-61-80-42-137-45v92" id="z"/><path d="M30 0v-248h33v221h125V0H30" id="A"/><g id="d"><use transform="matrix(0.06172839506172839,0,0,0.06172839506172839,0,0)" xlink:href="#y"/><use transform="matrix(0.06172839506172839,0,0,0.06172839506172839,15.987654320987653,0)" xlink:href="#z"/><use transform="matrix(0.06172839506172839,0,0,0.06172839506172839,31.975308641975307,0)" xlink:href="#A"/></g><path d="M30-248c118-7 216 8 213 122C240-48 200 0 122 0H30v-248zM63-27c89 8 146-16 146-99s-60-101-146-95v194" id="B"/><path d="M59-47c-2 24 18 29 38 22v24C64 9 27 4 27-40v-127H5v-23h24l9-43h21v43h35v23H59v120" id="C"/><g id="e"><use transform="matrix(0.06172839506172839,0,0,0.06172839506172839,0,0)" xlink:href="#B"/><use transform="matrix(0.06172839506172839,0,0,0.06172839506172839,15.987654320987653,0)" xlink:href="#p"/><use transform="matrix(0.06172839506172839,0,0,0.06172839506172839,28.333333333333332,0)" xlink:href="#C"/><use transform="matrix(0.06172839506172839,0,0,0.06172839506172839,34.50617283950617,0)" xlink:href="#w"/><use transform="matrix(0.06172839506172839,0,0,0.06172839506172839,46.85185185185185,0)" xlink:href="#n"/><use transform="matrix(0.06172839506172839,0,0,0.06172839506172839,51.72839506172839,0)" xlink:href="#o"/></g><g id="f"><use transform="matrix(0.06172839506172839,0,0,0.06172839506172839,0,0)" xlink:href="#B"/><use transform="matrix(0.06172839506172839,0,0,0.06172839506172839,15.987654320987653,0)" xlink:href="#w"/><use transform="matrix(0.06172839506172839,0,0,0.06172839506172839,28.333333333333332,0)" xlink:href="#C"/><use transform="matrix(0.06172839506172839,0,0,0.06172839506172839,34.50617283950617,0)" xlink:href="#w"/></g><path d="M266 0h-40l-56-210L115 0H75L2-248h35L96-30l15-64 43-154h32l59 218 59-218h35" id="D"/><path d="M106-169C34-169 62-67 57 0H25v-261h32l-1 103c12-21 28-36 61-36 89 0 53 116 60 194h-32v-121c2-32-8-49-39-48" id="E"/><path d="M84 4C-5 8 30-112 23-190h32v120c0 31 7 50 39 49 72-2 45-101 50-169h31l1 190h-30c-1-10 1-25-2-33-11 22-28 36-60 37" id="F"/><path d="M135-143c-3-34-86-38-87 0 15 53 115 12 119 90S17 21 10-45l28-5c4 36 97 45 98 0-10-56-113-15-118-90-4-57 82-63 122-42 12 7 21 19 24 35" id="G"/><g id="g"><use transform="matrix(0.06172839506172839,0,0,0.06172839506172839,0,0)" xlink:href="#D"/><use transform="matrix(0.06172839506172839,0,0,0.06172839506172839,20.123456790123456,0)" xlink:href="#w"/><use transform="matrix(0.06172839506172839,0,0,0.06172839506172839,32.46913580246913,0)" xlink:href="#v"/><use transform="matrix(0.06172839506172839,0,0,0.06172839506172839,39.81481481481481,0)" xlink:href="#p"/><use transform="matrix(0.06172839506172839,0,0,0.06172839506172839,52.16049382716049,0)" xlink:href="#E"/><use transform="matrix(0.06172839506172839,0,0,0.06172839506172839,64.50617283950616,0)" xlink:href="#r"/><use transform="matrix(0.06172839506172839,0,0,0.06172839506172839,76.85185185185185,0)" xlink:href="#F"/><use transform="matrix(0.06172839506172839,0,0,0.06172839506172839,89.19753086419753,0)" xlink:href="#G"/><use transform="matrix(0.06172839506172839,0,0,0.06172839506172839,100.30864197530865,0)" xlink:href="#p"/></g><path d="M30-248c87 1 191-15 191 75 0 78-77 80-158 76V0H30v-248zm33 125c57 0 124 11 124-50 0-59-68-47-124-48v98" id="H"/><path d="M96-169c-40 0-48 33-48 73s9 75 48 75c24 0 41-14 43-38l32 2c-6 37-31 61-74 61-59 0-76-41-82-99-10-93 101-131 147-64 4 7 5 14 7 22l-32 3c-4-21-16-35-41-35" id="I"/><g id="h"><use transform="matrix(0.06172839506172839,0,0,0.06172839506172839,0,0)" xlink:href="#H"/><use transform="matrix(0.06172839506172839,0,0,0.06172839506172839,14.814814814814813,0)" xlink:href="#v"/><use transform="matrix(0.06172839506172839,0,0,0.06172839506172839,22.160493827160494,0)" xlink:href="#r"/><use transform="matrix(0.06172839506172839,0,0,0.06172839506172839,34.50617283950617,0)" xlink:href="#I"/><use transform="matrix(0.06172839506172839,0,0,0.06172839506172839,45.61728395061728,0)" xlink:href="#p"/><use transform="matrix(0.06172839506172839,0,0,0.06172839506172839,57.962962962962955,0)" xlink:href="#G"/><use transform="matrix(0.06172839506172839,0,0,0.06172839506172839,69.07407407407406,0)" xlink:href="#G"/></g><g id="i"><use transform="matrix(0.06172839506172839,0,0,0.06172839506172839,0,0)" xlink:href="#q"/><use transform="matrix(0.06172839506172839,0,0,0.06172839506172839,15.987654320987653,0)" xlink:href="#v"/><use transform="matrix(0.06172839506172839,0,0,0.06172839506172839,23.333333333333332,0)" xlink:href="#w"/><use transform="matrix(0.06172839506172839,0,0,0.06172839506172839,35.67901234567901,0)" xlink:href="#x"/><use transform="matrix(0.06172839506172839,0,0,0.06172839506172839,51.666666666666664,0)" xlink:href="#o"/></g><path d="M143 0L79-87 56-68V0H24v-261h32v163l83-92h37l-77 82L181 0h-38" id="J"/><g id="j"><use transform="matrix(0.06172839506172839,0,0,0.06172839506172839,0,0)" xlink:href="#B"/><use transform="matrix(0.06172839506172839,0,0,0.06172839506172839,15.987654320987653,0)" xlink:href="#w"/><use transform="matrix(0.06172839506172839,0,0,0.06172839506172839,28.333333333333332,0)" xlink:href="#C"/><use transform="matrix(0.06172839506172839,0,0,0.06172839506172839,34.50617283950617,0)" xlink:href="#w"/><use transform="matrix(0.06172839506172839,0,0,0.06172839506172839,46.85185185185185,0)" xlink:href="#A"/><use transform="matrix(0.06172839506172839,0,0,0.06172839506172839,59.197530864197525,0)" xlink:href="#w"/><use transform="matrix(0.06172839506172839,0,0,0.06172839506172839,71.5432098765432,0)" xlink:href="#J"/><use transform="matrix(0.06172839506172839,0,0,0.06172839506172839,82.65432098765432,0)" xlink:href="#p"/></g><path d="M127-220V0H93v-220H8v-28h204v28h-85" id="K"/><path d="M210-169c-67 3-38 105-44 169h-31v-121c0-29-5-50-35-48C34-165 62-65 56 0H25l-1-190h30c1 10-1 24 2 32 10-44 99-50 107 0 11-21 27-35 58-36 85-2 47 119 55 194h-31v-121c0-29-5-49-35-48" id="L"/><g id="k"><use transform="matrix(0.06172839506172839,0,0,0.06172839506172839,0,0)" xlink:href="#K"/><use transform="matrix(0.06172839506172839,0,0,0.06172839506172839,12.716049382716047,0)" xlink:href="#v"/><use transform="matrix(0.06172839506172839,0,0,0.06172839506172839,20.061728395061728,0)" xlink:href="#w"/><use transform="matrix(0.06172839506172839,0,0,0.06172839506172839,32.407407407407405,0)" xlink:href="#s"/><use transform="matrix(0.06172839506172839,0,0,0.06172839506172839,44.75308641975308,0)" xlink:href="#G"/><use transform="matrix(0.06172839506172839,0,0,0.06172839506172839,55.86419753086419,0)" xlink:href="#t"/><use transform="matrix(0.06172839506172839,0,0,0.06172839506172839,62.03703703703703,0)" xlink:href="#r"/><use transform="matrix(0.06172839506172839,0,0,0.06172839506172839,74.38271604938271,0)" xlink:href="#v"/><use transform="matrix(0.06172839506172839,0,0,0.06172839506172839,81.72839506172839,0)" xlink:href="#L"/></g><path d="M205 0l-28-72H64L36 0H1l101-248h38L239 0h-34zm-38-99l-47-123c-12 45-31 82-46 123h93" id="M"/><g id="l"><use transform="matrix(0.06172839506172839,0,0,0.06172839506172839,0,0)" xlink:href="#M"/><use transform="matrix(0.06172839506172839,0,0,0.06172839506172839,14.814814814814813,0)" xlink:href="#n"/><use transform="matrix(0.06172839506172839,0,0,0.06172839506172839,19.691358024691354,0)" xlink:href="#v"/><use transform="matrix(0.06172839506172839,0,0,0.06172839506172839,27.03703703703703,0)" xlink:href="#t"/><use transform="matrix(0.06172839506172839,0,0,0.06172839506172839,33.20987654320987,0)" xlink:href="#o"/><use transform="matrix(0.06172839506172839,0,0,0.06172839506172839,38.08641975308642,0)" xlink:href="#r"/><use transform="matrix(0.06172839506172839,0,0,0.06172839506172839,50.432098765432094,0)" xlink:href="#x"/></g></defs></g></svg>